<svg width="608" height="220" xmlns="http://www.w3.org/2000/svg" xmlns:svg="http://www.w3.org/2000/svg" preserveAspectRatio="xMidYMid">
 <g>
  <path fill="#4b5842" id="svg_1" class="cls-1" d="m5,106l0,58l10,0l0,-34c0,0 2.126,-6.64 7.188,-10.875c5.354,-4.479 10.812,-4.125 10.812,-4.125l0,-11c0,0 -4.153,-0.301 -10.516,2.976c-6.351,3.271 -7.487,7.012 -7.484,7.024l0,-8l-10,0z"/>
  <path fill="#4b5842" id="svg_2" class="cls-1" d="m382,106l0,59.5l10,0l0,-35.5c0,0 2.12601,-6.64 7.18799,-10.875c5.354,-4.479 10.81201,-4.125 10.81201,-4.125l0,-11c0,0 -4.15302,-0.301 -10.51599,2.976c-6.35101,3.271 -7.487,7.012 -7.48401,7.024l0,-8l-10,0z"/>
  <path fill="#4b5842" id="svg_3" class="cls-1" d="m107,164l10,0l0,-36c0,0 1.5,-12 14,-12c12.5,0 14,12 14,12l0,36l10,0l0,-38c0,0 -0.83299,-20 -24,-20c-23.167,0 -24,20 -24,20l0,38z"/>
  <path fill="#4b5842" id="svg_4" class="cls-1" d="m484,166l10,0l0,-38c0,0 1.5,-12 14,-12c12.5,0 14,12 14,12l0,38l10,0l0,-40c0,0 -0.83301,-20 -24,-20c-23.16699,0 -24,20 -24,20l0,40z"/>
  <path fill="#4b5842" id="svg_5" class="cls-1" d="m167.937,164l0,-84l11.063,0l0,48l9.063,0l14.12399,-21.937l12.813,-0.063l-16.812,25.25c0,0 12.812,-0.375 12.812,14.75c0,14.5 0,18 0,18l-12,0c0,0 0,-14.75 0,-18c0,-3.25 -2.625,-8 -7.125,-8c-6.5,0 -12.875,0 -12.875,0l0,26l-11.063,0z"/>
  <path fill="#4b5842" id="svg_6" class="cls-1" d="m313.05899,80.938c0,0 0.108,48.864 0.108,57.562c0,14.5 13.83301,27.91701 30.25,27.91701c20,0 30.16602,-16.75 30.16602,-31.5c0,-14.00001 -11.66602,-28.91701 -26.58301,-28.91701c-13.5,0 -17.83301,4 -17.83301,4l0,11.25c0,0 5.08301,-5.417 14.83301,-5.417c11.198,0 18.83301,10.5 18.83301,19.167c0,9.431 -7.83301,21.16701 -18.75,21.16701c-11.83401,0 -19.15701,-8.632 -19.16602,-17.132c-0.00598,-6.22 0.06,-58.12901 0.06,-58.12901"/>
  <path fill="#66ca12" id="svg_7" class="cls-2" d="m324.97699,80.989c0,0 0.02301,-20.574 0.02301,-24.989c0,-24.583 -13.66699,-48 -46,-48c-30.16701,0 -48.25,26.833 -48.25,47.25c0,15.75 6.91701,18.917 6.58299,28.583c-0.33299,9.667 -17.83299,15.25 -17.83299,50.417c0,25.91701 8.58299,32.83299 8.25,49.5c-0.33299,16.66701 -10.75,26.25 -10.75,26.25c0,0 22.246,-14.991 40,-20c23.75,-4.91701 36.465,-6.08099 45.58301,-22.75c11.00101,-20.11099 8.25,-41.917 -3.75,-61.25c-12,-19.333 -34.72101,-22.614 -43.804,-25.556c-11.31401,-3.664 -13.278,-13.888 -13.278,-24.785c0,-17.005 12.83099,-36.993 38.16599,-36.992c22.58301,0.001 33.08301,17.916 33.08301,37.333l0.05899,25"/>
  <path fill="#4b5842" id="svg_8" class="cls-1" d="m589.59399,79.6c0,0 0.09198,50.161 0.08301,59.43501c-0.00897,8.5 -7.33203,17.132 -19.16699,17.132c-10.91602,0 -18.75,-11.73601 -18.75,-21.16701c0,-8.667 7.63599,-19.167 18.83398,-19.167c9.75,0 14.83301,5.417 14.83301,5.417l0,-11.25c0,0 -4.33301,-4 -17.83301,-4c-14.91699,0 -26.58398,14.917 -26.58398,28.91701c0,14.75 10.16699,31.5 30.16699,31.5c16.41699,0 30.25,-13.41701 30.25,-27.91701c0,-14.5 0.16699,-58.9 0.16699,-58.9l-12,0z"/>
  <path fill="#4b5842" id="svg_9" class="cls-1" d="m457,148l0,12c0,0 -7.66699,5.83299 -16,5.83299c-8.33301,0 -28.75,-6.29099 -28.75,-30.45799c0,-18.292 13.25,-30.438 30.5,-30.438c12.5,0 29.31201,9.167 29.31201,24.5c0,15.334 0,36.563 0,36.563l-11.06201,0c0,0 0.13101,-27.31599 0.13101,-36.31599c0,-5.62401 -8.44101,-13.68401 -18.13101,-13.68401c-10,0 -19.75,7.792 -19.75,19.688c0,13.83299 11.375,20.125 18.875,20.125c7.5,0 14.875,-7.813 14.875,-7.813z"/>
  <path fill="#4b5842" id="svg_10" class="cls-1" d="m277,148l0,12c0,0 -7.66699,5.83299 -16,5.83299c-8.33299,0 -28.75,-6.29099 -28.75,-30.45799c0,-18.292 13.25,-30.438 30.5,-30.438c12.5,0 29.31201,9.167 29.31201,24.5c0,15.334 0,36.563 0,36.563l-11.06201,0c0,0 0.13101,-27.31599 0.13101,-36.31599c0,-5.62401 -8.44101,-13.68401 -18.13101,-13.68401c-10,0 -19.75,7.792 -19.75,19.688c0,13.83299 11.375,20.125 18.875,20.125c7.5,0 14.875,-7.813 14.875,-7.813z"/>
  <path fill="#4b5842" id="svg_11" class="cls-1" d="m81,148l0,12c0,0 -7.667,5.83299 -16,5.83299c-8.333,0 -28.75,-6.29099 -28.75,-30.45799c0,-18.292 13.25,-30.438 30.5,-30.438c12.5,0 29.312,9.167 29.312,24.5c0,15.334 0,36.563 0,36.563l-11.062,0c0,0 0.131,-27.31599 0.131,-36.31599c0,-5.62401 -8.44099,-13.68401 -18.131,-13.68401c-10,0 -19.75,7.792 -19.75,19.688c0,13.83299 11.375,20.125 18.875,20.125c7.5,0 14.875,-7.813 14.875,-7.813z"/>
  <path fill="#66ca12" id="svg_12" class="cls-3" d="m597.53497,206.22501c-2.29797,2.437 -5.66296,3.65599 -10.09296,3.65599c-4.367,0 -7.716,-1.22499 -10.04504,-3.675c-2.32996,-2.45 -3.495,-6.01799 -3.495,-10.70299c0,-4.63301 1.159,-8.17201 3.47601,-10.61601c2.31598,-2.444 5.68402,-3.666 10.10199,-3.666c4.42999,0 7.789,1.21301 10.07404,3.63701c2.28497,2.425 3.427,5.98599 3.427,10.68401c0,4.68399 -1.14905,8.245 -3.44604,10.683zm-5.875,-16.84401c-0.93298,-1.326 -2.32697,-1.98999 -4.17999,-1.98999c-3.771,0 -5.65601,2.717 -5.65601,8.151c0,5.38199 1.87305,8.07399 5.61804,8.07399c1.90399,0 3.31598,-0.65399 4.237,-1.96199c0.91998,-1.30701 1.38098,-3.345 1.38098,-6.112c0,-2.78101 -0.46698,-4.83401 -1.40002,-6.16101zm-33.16296,20.5c-4.29199,0 -7.60803,-1.244 -9.95001,-3.733c-2.34302,-2.48799 -3.51398,-6.036 -3.51398,-10.64499c0,-4.494 1.28198,-7.99101 3.84698,-10.492c2.56396,-2.50101 6.15698,-3.752 10.77802,-3.752c1.75195,0 3.40601,0.16499 4.961,0.495c1.55499,0.33101 2.90997,0.75 4.06598,1.257l-2.38098,5.90399c-2.00604,-0.991 -4.20801,-1.48599 -6.60803,-1.48599c-2.19598,0 -3.89398,0.714 -5.09399,2.14301c-1.19897,1.42799 -1.79901,3.46899 -1.79901,6.12199c0,2.60201 0.54199,4.586 1.62805,5.951c1.08496,1.36499 2.64996,2.047 4.69397,2.047c1.117,0 2.14502,-0.108 3.08502,-0.32401l0,-4.36099l-4.97003,0l0,-5.808l12.01599,0l0,15.006c-3.263,1.117 -6.849,1.67599 -10.75897,1.67599zm-43.97101,-28.222l16.53003,0l0,6.037l-9.00806,0l0,4.38l8.341,0l0,6.036l-8.341,0l0,5.256l9.00806,0l0,6.132l-16.53003,0l0,-27.841zm-13.577,16.491l-8.741,0l0,11.35001l-7.56,0l0,-27.841l7.56,0l0,10.321l8.741,0l0,-10.321l7.56,0l0,27.841l-7.56,0l0,-11.35001zm-27.06,11.35001l-7.522,0l0,-21.69l-6.79901,0l0,-6.151l21.10001,0l0,6.151l-6.77899,0l0,21.69zm-48.465,-19.614l-0.17102,0c0.241,3.08499 0.362,5.44 0.362,7.065l0,12.549l-6.66498,0l0,-27.841l9.82599,0l10.13101,19.34801l0.11398,0c-0.17801,-2.806 -0.267,-5.05901 -0.267,-6.76001l0,-12.588l6.70401,0l0,27.841l-9.86502,0l-10.16898,-19.614zm-25.04102,19.995c-4.36798,0 -7.716,-1.22499 -10.04498,-3.675c-2.33002,-2.45 -3.49503,-6.01799 -3.49503,-10.70299c0,-4.63301 1.15903,-8.17201 3.47601,-10.61601c2.31601,-2.444 5.68399,-3.666 10.10199,-3.666c4.43002,0 7.78802,1.21301 10.07401,3.63701c2.285,2.425 3.427,5.98599 3.427,10.68401c0,4.68399 -1.14899,8.245 -3.44598,10.683c-2.298,2.437 -5.66302,3.65599 -10.09302,3.65599zm4.21802,-20.5c-0.93301,-1.326 -2.32703,-1.98999 -4.18002,-1.98999c-3.771,0 -5.65598,2.717 -5.65598,8.151c0,5.38199 1.87299,8.07399 5.61798,8.07399c1.90399,0 3.31601,-0.65399 4.237,-1.96199c0.92001,-1.30701 1.38,-3.345 1.38,-6.112c0,-2.78101 -0.466,-4.83401 -1.39899,-6.16101z"/>
 </g>
</svg>