<?xml version="1.0" encoding="UTF-8" standalone="no"?>
<!DOCTYPE svg PUBLIC "-//W3C//DTD SVG 1.1//EN" "http://www.w3.org/Graphics/SVG/1.1/DTD/svg11.dtd">
<svg version="1.1" xmlns="http://www.w3.org/2000/svg" xmlns:xlink="http://www.w3.org/1999/xlink" preserveAspectRatio="xMidYMid meet" viewBox="166.4733755083862 274.3008913032494 20.30848371035023 20.308483710350288" width="30" height="30"><defs><path d="M174.64 275.32L174.91 275.35L175.17 275.39L175.43 275.44L175.69 275.49L175.94 275.56L176.19 275.64L176.44 275.73L176.68 275.82L176.91 275.93L177.14 276.04L177.37 276.16L177.59 276.29L177.8 276.43L178.01 276.58L178.21 276.73L178.41 276.9L178.6 277.07L178.78 277.24L178.96 277.42L179.13 277.61L179.29 277.81L179.45 278.01L179.59 278.22L179.73 278.44L179.86 278.66L179.98 278.88L180.1 279.11L180.2 279.35L180.3 279.59L180.39 279.83L180.46 280.08L180.53 280.33L180.59 280.59L180.64 280.85L180.67 281.12L180.7 281.38L180.72 281.65L180.72 281.93L180.72 282.2L180.7 282.47L180.67 282.74L180.64 283L180.59 283.26L180.53 283.52L180.46 283.77L180.39 284.02L180.3 284.26L180.2 284.51L180.1 284.74L179.98 284.97L179.86 285.2L179.73 285.42L179.6 285.62L183.78 289.81L181.98 291.61L177.8 287.42L177.59 287.56L177.37 287.69L177.14 287.81L176.91 287.93L176.68 288.03L176.44 288.13L176.19 288.21L175.94 288.29L175.69 288.36L175.43 288.42L175.17 288.46L174.91 288.5L174.64 288.53L174.37 288.55L174.1 288.55L173.83 288.55L173.56 288.53L173.29 288.5L173.02 288.46L172.76 288.42L172.51 288.36L172.25 288.29L172 288.21L171.76 288.13L171.52 288.03L171.28 287.93L171.05 287.81L170.83 287.69L170.61 287.56L170.39 287.42L170.19 287.27L169.98 287.12L169.79 286.96L169.6 286.79L169.41 286.61L169.24 286.43L169.07 286.24L168.91 286.04L168.75 285.84L168.6 285.63L168.47 285.42L168.34 285.2L168.21 284.97L168.1 284.74L167.99 284.51L167.9 284.26L167.81 284.02L167.73 283.77L167.67 283.52L167.61 283.26L167.56 283L167.52 282.74L167.5 282.47L167.48 282.2L167.47 281.93L167.48 281.65L167.5 281.38L167.52 281.12L167.56 280.85L167.61 280.59L167.67 280.33L167.73 280.08L167.81 279.83L167.9 279.59L167.99 279.35L168.1 279.11L168.21 278.88L168.34 278.66L168.47 278.44L168.6 278.22L168.75 278.01L168.91 277.81L169.07 277.61L169.24 277.42L169.41 277.24L169.6 277.07L169.79 276.9L169.98 276.73L170.19 276.58L170.39 276.43L170.61 276.29L170.83 276.16L171.05 276.04L171.28 275.93L171.52 275.82L171.76 275.73L172 275.64L172.25 275.56L172.51 275.49L172.76 275.44L173.02 275.39L173.29 275.35L173.56 275.32L173.83 275.31L174.1 275.3L174.37 275.31L174.64 275.32ZM173.76 277.85L173.6 277.87L173.44 277.89L173.27 277.92L173.12 277.96L172.96 278L172.81 278.05L172.66 278.1L172.51 278.16L172.36 278.22L172.22 278.29L172.08 278.37L171.95 278.45L171.81 278.54L171.68 278.63L171.56 278.72L171.44 278.82L171.32 278.93L171.21 279.04L171.1 279.15L170.99 279.27L170.89 279.39L170.8 279.51L170.71 279.64L170.62 279.77L170.54 279.91L170.47 280.05L170.4 280.19L170.33 280.33L170.27 280.48L170.22 280.63L170.17 280.79L170.13 280.94L170.09 281.1L170.06 281.26L170.04 281.43L170.02 281.59L170.01 281.76L170.01 281.93L170.01 282.09L170.02 282.26L170.04 282.43L170.06 282.59L170.09 282.75L170.13 282.91L170.17 283.06L170.22 283.22L170.27 283.37L170.33 283.52L170.4 283.66L170.47 283.8L170.54 283.94L170.62 284.08L170.71 284.21L170.8 284.34L170.89 284.47L170.99 284.59L171.1 284.7L171.21 284.82L171.32 284.93L171.44 285.03L171.56 285.13L171.68 285.23L171.81 285.32L171.95 285.4L172.08 285.48L172.22 285.56L172.36 285.63L172.51 285.69L172.66 285.75L172.81 285.81L172.96 285.85L173.12 285.9L173.27 285.93L173.44 285.96L173.6 285.98L173.76 286L173.93 286.01L174.1 286.01L174.27 286.01L174.43 286L174.6 285.98L174.76 285.96L174.92 285.93L175.08 285.9L175.24 285.85L175.39 285.81L175.54 285.75L175.69 285.69L175.84 285.63L175.98 285.56L176.12 285.48L176.25 285.4L176.38 285.32L176.51 285.23L176.64 285.13L176.76 285.03L176.88 284.93L176.99 284.82L177.1 284.7L177.2 284.59L177.3 284.47L177.4 284.34L177.49 284.21L177.57 284.08L177.65 283.94L177.73 283.8L177.8 283.66L177.87 283.52L177.92 283.37L177.98 283.22L178.03 283.06L178.07 282.91L178.1 282.75L178.13 282.59L178.16 282.43L178.17 282.26L178.18 282.09L178.19 281.93L178.18 281.76L178.17 281.59L178.16 281.43L178.13 281.26L178.1 281.1L178.07 280.94L178.03 280.79L177.98 280.63L177.92 280.48L177.87 280.33L177.8 280.19L177.73 280.05L177.65 279.91L177.57 279.77L177.49 279.64L177.4 279.51L177.3 279.39L177.2 279.27L177.1 279.15L176.99 279.04L176.88 278.93L176.76 278.82L176.64 278.72L176.51 278.63L176.38 278.54L176.25 278.45L176.12 278.37L175.98 278.29L175.84 278.22L175.69 278.16L175.54 278.1L175.39 278.05L175.24 278L175.08 277.96L174.92 277.92L174.76 277.89L174.6 277.87L174.43 277.85L174.27 277.84L174.1 277.84L173.93 277.84L173.76 277.85Z" id="aE8TiybFK"></path></defs><g><g><use xlink:href="#aE8TiybFK" opacity="1" fill="#6f6f6f" fill-opacity="1"></use></g></g></svg>