<?xml version="1.0" encoding="UTF-8" standalone="no"?>
<!DOCTYPE svg PUBLIC "-//W3C//DTD SVG 1.1//EN" "http://www.w3.org/Graphics/SVG/1.1/DTD/svg11.dtd">
<svg version="1.1" xmlns="http://www.w3.org/2000/svg" xmlns:xlink="http://www.w3.org/1999/xlink" preserveAspectRatio="xMidYMid meet" viewBox="334.09751054772204 81.1408450793001 22.616967420700178 22.616967420700192" width="18.62" height="18.62"><defs><path d="M343.28 82.17L343.59 82.2L343.89 82.24L344.18 82.29L344.48 82.36L344.77 82.44L345.05 82.53L345.33 82.63L345.6 82.74L345.87 82.86L346.14 82.99L346.39 83.12L346.64 83.27L346.89 83.43L347.13 83.6L347.36 83.78L347.58 83.96L347.8 84.15L348.01 84.36L348.21 84.57L348.4 84.78L348.59 85.01L348.76 85.24L348.93 85.48L349.09 85.72L349.24 85.97L349.38 86.23L349.51 86.49L349.63 86.76L349.74 87.03L349.84 87.31L349.93 87.6L350 87.89L350.07 88.18L350.12 88.48L350.17 88.78L350.2 89.08L350.22 89.39L350.22 89.7L350.22 90.02L350.2 90.32L350.17 90.63L350.12 90.93L350.07 91.23L350 91.52L349.93 91.81L349.84 92.09L349.74 92.37L349.63 92.65L349.51 92.92L349.38 93.18L349.24 93.44L349.09 93.69L348.94 93.92L353.71 98.7L351.66 100.76L346.88 95.98L346.64 96.13L346.39 96.28L346.14 96.42L345.87 96.55L345.6 96.67L345.33 96.78L345.05 96.88L344.77 96.97L344.48 97.05L344.18 97.11L343.89 97.17L343.59 97.21L343.28 97.24L342.97 97.26L342.66 97.27L342.35 97.26L342.04 97.24L341.74 97.21L341.43 97.17L341.14 97.11L340.84 97.05L340.55 96.97L340.27 96.88L339.99 96.78L339.72 96.67L339.45 96.55L339.18 96.42L338.93 96.28L338.68 96.13L338.43 95.98L338.19 95.81L337.96 95.63L337.74 95.45L337.52 95.25L337.31 95.05L337.11 94.84L336.92 94.63L336.73 94.4L336.56 94.17L336.39 93.93L336.23 93.69L336.08 93.44L335.94 93.18L335.81 92.92L335.69 92.65L335.58 92.37L335.48 92.09L335.39 91.81L335.32 91.52L335.25 91.23L335.2 90.93L335.15 90.63L335.12 90.32L335.1 90.02L335.1 89.7L335.1 89.39L335.12 89.08L335.15 88.78L335.2 88.48L335.25 88.18L335.32 87.89L335.39 87.6L335.48 87.31L335.58 87.03L335.69 86.76L335.81 86.49L335.94 86.23L336.08 85.97L336.23 85.72L336.39 85.48L336.56 85.24L336.73 85.01L336.92 84.78L337.11 84.57L337.31 84.36L337.52 84.15L337.74 83.96L337.96 83.78L338.19 83.6L338.43 83.43L338.68 83.27L338.93 83.12L339.18 82.99L339.45 82.86L339.72 82.74L339.99 82.63L340.27 82.53L340.55 82.44L340.84 82.36L341.14 82.29L341.43 82.24L341.74 82.2L342.04 82.17L342.35 82.15L342.66 82.14L342.97 82.15L343.28 82.17ZM342.28 85.05L342.09 85.07L341.9 85.1L341.72 85.13L341.54 85.17L341.36 85.22L341.19 85.28L341.01 85.34L340.84 85.4L340.68 85.48L340.52 85.56L340.36 85.64L340.2 85.74L340.05 85.83L339.9 85.94L339.76 86.05L339.62 86.16L339.49 86.28L339.36 86.4L339.24 86.53L339.12 86.67L339 86.81L338.89 86.95L338.79 87.09L338.69 87.25L338.6 87.4L338.51 87.56L338.43 87.72L338.36 87.89L338.29 88.06L338.23 88.23L338.18 88.4L338.13 88.58L338.09 88.76L338.06 88.95L338.03 89.13L338.01 89.32L338 89.51L337.99 89.7L338 89.9L338.01 90.09L338.03 90.27L338.06 90.46L338.09 90.64L338.13 90.83L338.18 91L338.23 91.18L338.29 91.35L338.36 91.52L338.43 91.69L338.51 91.85L338.6 92.01L338.69 92.16L338.79 92.31L338.89 92.46L339 92.6L339.12 92.74L339.24 92.87L339.36 93L339.49 93.13L339.62 93.25L339.76 93.36L339.9 93.47L340.05 93.57L340.2 93.67L340.36 93.76L340.52 93.85L340.68 93.93L340.84 94L341.01 94.07L341.19 94.13L341.36 94.19L341.54 94.23L341.72 94.28L341.9 94.31L342.09 94.34L342.28 94.36L342.47 94.37L342.66 94.37L342.85 94.37L343.04 94.36L343.23 94.34L343.42 94.31L343.6 94.28L343.78 94.23L343.96 94.19L344.14 94.13L344.31 94.07L344.48 94L344.64 93.93L344.81 93.85L344.96 93.76L345.12 93.67L345.27 93.57L345.42 93.47L345.56 93.36L345.7 93.25L345.83 93.13L345.96 93L346.08 92.87L346.2 92.74L346.32 92.6L346.43 92.46L346.53 92.31L346.63 92.16L346.72 92.01L346.81 91.85L346.89 91.69L346.96 91.52L347.03 91.35L347.09 91.18L347.14 91L347.19 90.83L347.23 90.64L347.27 90.46L347.29 90.27L347.31 90.09L347.32 89.9L347.33 89.7L347.32 89.51L347.31 89.32L347.29 89.13L347.27 88.95L347.23 88.76L347.19 88.58L347.14 88.4L347.09 88.23L347.03 88.06L346.96 87.89L346.89 87.72L346.81 87.56L346.72 87.4L346.63 87.25L346.53 87.09L346.43 86.95L346.32 86.81L346.2 86.67L346.08 86.53L345.96 86.4L345.83 86.28L345.7 86.16L345.56 86.05L345.42 85.94L345.27 85.83L345.12 85.74L344.96 85.64L344.81 85.56L344.64 85.48L344.48 85.4L344.31 85.34L344.14 85.28L343.96 85.22L343.78 85.17L343.6 85.13L343.42 85.1L343.23 85.07L343.04 85.05L342.85 85.04L342.66 85.04L342.47 85.04L342.28 85.05Z" id="a3ZxXNdvQ4"></path></defs><g><g><use xlink:href="#a3ZxXNdvQ4" opacity="1" fill="#000000" fill-opacity="1"></use></g></g></svg>